<?xml version="1.0" encoding="UTF-8" standalone="no"?>
<!-- Created with Inkscape (http://www.inkscape.org/) -->

<svg
   xmlns:dc="http://purl.org/dc/elements/1.1/"
   xmlns:cc="http://creativecommons.org/ns#"
   xmlns:rdf="http://www.w3.org/1999/02/22-rdf-syntax-ns#"
   xmlns:svg="http://www.w3.org/2000/svg"
   xmlns="http://www.w3.org/2000/svg"
   xmlns:sodipodi="http://sodipodi.sourceforge.net/DTD/sodipodi-0.dtd"
   xmlns:inkscape="http://www.inkscape.org/namespaces/inkscape"
   width="192"
   height="192"
   viewBox="0 0 192.00001 192.00001"
   id="svg2"
   version="1.1"
   inkscape:version="0.91 r13725"
   sodipodi:docname="okcommand-icon.svg">
  <defs
     id="defs4" />
  <sodipodi:namedview
     id="base"
     pagecolor="#ffffff"
     bordercolor="#666666"
     borderopacity="1.0"
     inkscape:pageopacity="0.0"
     inkscape:pageshadow="2"
     inkscape:zoom="4.1041667"
     inkscape:cx="96"
     inkscape:cy="96"
     inkscape:document-units="px"
     inkscape:current-layer="layer1"
     showgrid="false"
     units="px"
     inkscape:object-nodes="true"
     showborder="false"
     inkscape:snap-smooth-nodes="true"
     inkscape:window-width="1680"
     inkscape:window-height="987"
     inkscape:window-x="-8"
     inkscape:window-y="-8"
     inkscape:window-maximized="1">
    <inkscape:grid
       type="xygrid"
       id="grid4136"
       spacingx="12"
       spacingy="12"
       empspacing="4"
       color="#0101ff"
       opacity="0.25098039"
       empcolor="#0101ff"
       empopacity="0.37647059" />
    <inkscape:grid
       type="xygrid"
       id="grid4145"
       spacingx="6.0000003"
       spacingy="6.0000003"
       color="#808080"
       opacity="0.1254902"
       empcolor="#ff0000"
       empopacity="0.25098039"
       empspacing="2"
       enabled="true"
       dotted="true" />
  </sodipodi:namedview>
  <metadata
     id="metadata7">
    <rdf:RDF>
      <cc:Work
         rdf:about="">
        <dc:format>image/svg+xml</dc:format>
        <dc:type
           rdf:resource="http://purl.org/dc/dcmitype/StillImage" />
        <dc:title></dc:title>
      </cc:Work>
    </rdf:RDF>
  </metadata>
  <g
     inkscape:label="Layer 1"
     inkscape:groupmode="layer"
     id="layer1"
     transform="translate(0,-860.3622)">
    <rect
       style="fill:#1a1a1a;fill-opacity:1;stroke:none;stroke-width:1;stroke-linecap:butt;stroke-linejoin:miter;stroke-miterlimit:4;stroke-dasharray:none;stroke-dashoffset:1.5;stroke-opacity:1"
       id="rect4138"
       width="192"
       height="192"
       x="0"
       y="860.36218" />
    <path
       id="path4142"
       style="fill:#ffffff;fill-rule:evenodd;stroke:none;stroke-width:1px;stroke-linecap:butt;stroke-linejoin:miter;stroke-opacity:1"
       d="m 23.999999,956.3622 c 2e-6,-5.99999 6.000003,-11.99999 12,-12 l 12.000003,10e-6 c 6.000006,10e-6 12.000004,6.00001 12,12 l 0,59.99999 c 4e-6,6 -5.999994,12 -12,12 l -12.000003,0 c -5.999997,0 -11.999998,-6 -12,-12 z M 12,956.3622 c 0,-11.99999 12.000001,-23.99999 23.999999,-24 l 12.000003,10e-6 c 12.000004,0 24.000007,12.00001 24,24 l 0,59.99999 c 7e-6,12 -11.999996,24 -24,24 l -12.000003,0 c -11.999998,0 -23.999999,-12 -23.999999,-24 z"
       inkscape:connector-curvature="0"
       sodipodi:nodetypes="cccccccccscccccccs" />
    <path
       style="fill:#ffffff;fill-rule:evenodd;stroke:none;stroke-width:1px;stroke-linecap:butt;stroke-linejoin:miter;stroke-opacity:1"
       d="m 84.000003,896.36221 12.000003,0 0,143.99999 -12.000003,0 z"
       id="path4147"
       inkscape:connector-curvature="0"
       sodipodi:nodetypes="ccccc" />
    <path
       style="fill:#ffffff;fill-rule:evenodd;stroke:none;stroke-width:1px;stroke-linecap:butt;stroke-linejoin:miter;stroke-opacity:1"
       d="m 132,944.36221 -12,0 1e-5,12 c 1e-5,12 -12,24 -24.000017,24 l -11.999988,0 0,12 11.999988,0 c 18.000017,0 36.000027,-18 36.000017,-36 z"
       id="path4164"
       inkscape:connector-curvature="0"
       sodipodi:nodetypes="ccssccssc" />
    <path
       sodipodi:nodetypes="ccssccssc"
       inkscape:connector-curvature="0"
       id="path4166"
       d="m 144.00001,1040.3622 -12,0 1e-5,-24 c 1e-5,-12 -12,-23.99999 -24.00002,-23.99999 l -11.999985,0 0,-12 11.999985,0 c 18.00002,0 36.00003,18 36.00002,35.99999 z"
       style="fill:#ffffff;fill-rule:evenodd;stroke:none;stroke-width:1px;stroke-linecap:butt;stroke-linejoin:miter;stroke-opacity:1" />
  </g>
</svg>
